<svg width="22" height="21" viewBox="0 0 22 21" fill="none" xmlns="http://www.w3.org/2000/svg">
<path d="M7.95898 20.8618C7.47884 20.8618 7.05566 20.6258 6.68945 20.1538L0.354004 12.085C0.231934 11.9385 0.142415 11.792 0.0854492 11.6455C0.0284831 11.4909 0 11.3403 0 11.1938C0 10.8602 0.109863 10.5876 0.32959 10.376C0.549316 10.1562 0.830078 10.0464 1.17188 10.0464C1.57878 10.0464 1.92871 10.2458 2.22168 10.6445L7.91016 18.0908L18.8721 0.622559C19.0186 0.394694 19.1691 0.236003 19.3237 0.146484C19.4784 0.0488281 19.6777 0 19.9219 0C20.2555 0 20.5241 0.101725 20.7275 0.305176C20.931 0.508626 21.0327 0.777181 21.0327 1.11084C21.0327 1.25732 21.0083 1.40381 20.9595 1.55029C20.9106 1.68864 20.8333 1.84326 20.7275 2.01416L9.19189 20.1782C8.89079 20.634 8.47982 20.8618 7.95898 20.8618Z" fill="white"/>
</svg>
