<svg width="22" height="27" viewBox="0 0 22 27" fill="none" xmlns="http://www.w3.org/2000/svg">
<path d="M5.10254 26.0986C3.4668 26.0986 2.2054 25.6551 1.31836 24.7681C0.439453 23.8892 0 22.6318 0 20.9961V11.5967C0 9.9528 0.439453 8.69141 1.31836 7.8125C2.2054 6.93359 3.4668 6.49414 5.10254 6.49414H7.56836V8.45947H5.10254C4.10156 8.45947 3.32845 8.7321 2.7832 9.27734C2.23796 9.82259 1.96533 10.5957 1.96533 11.5967V20.9961C1.96533 21.9971 2.23796 22.7702 2.7832 23.3154C3.32845 23.8607 4.10156 24.1333 5.10254 24.1333H16.5527C17.5618 24.1333 18.339 23.8607 18.8843 23.3154C19.4295 22.7702 19.7021 21.9971 19.7021 20.9961V11.5967C19.7021 10.5957 19.4295 9.82259 18.8843 9.27734C18.339 8.7321 17.5618 8.45947 16.5527 8.45947H14.0869V6.49414H16.5527C18.1966 6.49414 19.458 6.93359 20.3369 7.8125C21.224 8.69141 21.6675 9.9528 21.6675 11.5967V20.9961C21.6675 22.6318 21.224 23.8892 20.3369 24.7681C19.458 25.6551 18.1966 26.0986 16.5527 26.0986H5.10254ZM10.8398 0C11.1003 0 11.3241 0.0935872 11.5112 0.280762C11.7065 0.467936 11.8042 0.687663 11.8042 0.939941V13.3545L11.6577 16.6504C11.6414 16.8701 11.556 17.0614 11.4014 17.2241C11.2467 17.3869 11.0596 17.4683 10.8398 17.4683C10.612 17.4683 10.4207 17.3869 10.2661 17.2241C10.1115 17.0614 10.026 16.8701 10.0098 16.6504L9.86328 13.3545V0.939941C9.86328 0.687663 9.95687 0.467936 10.144 0.280762C10.3394 0.0935872 10.5713 0 10.8398 0ZM6.68945 12.1582C6.96615 12.1582 7.18994 12.2559 7.36084 12.4512L9.25293 14.4653L10.8398 16.1377L12.4146 14.4653L14.3066 12.4512C14.4694 12.2559 14.6891 12.1582 14.9658 12.1582C15.2181 12.1582 15.4297 12.2396 15.6006 12.4023C15.7715 12.5651 15.8569 12.7686 15.8569 13.0127C15.8569 13.2487 15.7593 13.4644 15.564 13.6597L11.5356 17.5415C11.4136 17.6636 11.2956 17.749 11.1816 17.7979C11.0758 17.8385 10.9619 17.8589 10.8398 17.8589C10.7096 17.8589 10.5876 17.8385 10.4736 17.7979C10.3678 17.749 10.2539 17.6636 10.1318 17.5415L6.10352 13.6597C5.9082 13.4644 5.81055 13.2487 5.81055 13.0127C5.81055 12.7686 5.89193 12.5651 6.05469 12.4023C6.22559 12.2396 6.43717 12.1582 6.68945 12.1582Z" fill="#333333"/>
</svg>
