<svg width="26" height="26" viewBox="0 0 26 26" fill="none" xmlns="http://www.w3.org/2000/svg">
<path d="M15.2832 25.5737C14.7135 25.5737 14.3026 25.3703 14.0503 24.9634C13.798 24.5565 13.5824 24.0479 13.4033 23.4375L10.8398 14.7339L2.02637 12.146C1.44043 11.967 0.956217 11.7554 0.57373 11.5112C0.191243 11.259 0 10.8521 0 10.2905C0 9.85107 0.174967 9.47266 0.524902 9.15527C0.874837 8.83789 1.30615 8.58154 1.81885 8.38623L22.8149 0.341797C23.0998 0.236003 23.3643 0.154622 23.6084 0.0976562C23.8607 0.0325521 24.0885 0 24.292 0C24.6908 0 25.0041 0.113932 25.2319 0.341797C25.4598 0.569661 25.5737 0.882975 25.5737 1.28174C25.5737 1.49333 25.5412 1.72119 25.4761 1.96533C25.4191 2.20947 25.3377 2.47396 25.2319 2.75879L17.2363 23.645C17.0085 24.231 16.7358 24.6989 16.4185 25.0488C16.1011 25.3988 15.7227 25.5737 15.2832 25.5737ZM11.3892 12.8784L19.7876 4.47998C20.1213 4.14632 20.516 3.79232 20.9717 3.41797C21.4274 3.04362 21.8587 2.69368 22.2656 2.36816C21.8099 2.57975 21.346 2.79948 20.874 3.02734C20.4102 3.24707 19.9341 3.45052 19.4458 3.6377L2.94189 9.8877C2.85238 9.92025 2.79134 9.95687 2.75879 9.99756C2.72624 10.0301 2.70996 10.0667 2.70996 10.1074C2.70996 10.1481 2.72624 10.1847 2.75879 10.2173C2.79948 10.2498 2.86865 10.2783 2.96631 10.3027L11.3892 12.8784ZM15.4785 22.8882C15.5192 22.8882 15.5558 22.8678 15.5884 22.8271C15.6209 22.7865 15.6535 22.7214 15.686 22.6318L21.936 6.12793C22.1232 5.63151 22.3307 5.1473 22.5586 4.67529C22.7865 4.20329 23.0062 3.73535 23.2178 3.27148C22.8923 3.68652 22.5382 4.12598 22.1558 4.58984C21.7814 5.05371 21.4274 5.45247 21.0938 5.78613L12.6953 14.1846L15.271 22.6074C15.3035 22.7051 15.332 22.7743 15.3564 22.8149C15.389 22.8638 15.4297 22.8882 15.4785 22.8882Z" fill="#333333"/>
</svg>
