<svg width="38" height="63" viewBox="0 0 38 63" fill="none" xmlns="http://www.w3.org/2000/svg">
<path d="M7.96875 62.0215C5.58594 62.0215 3.66211 61.3184 2.19727 59.9121C0.732422 58.5254 0 56.6895 0 54.4043V7.61719C0 5.33203 0.732422 3.49609 2.19727 2.10938C3.66211 0.703125 5.58594 0 7.96875 0H29.6777C32.0801 0 34.0039 0.703125 35.4492 2.10938C36.9141 3.49609 37.6465 5.33203 37.6465 7.61719V54.4043C37.6465 56.6895 36.9141 58.5254 35.4492 59.9121C34.0039 61.3184 32.0801 62.0215 29.6777 62.0215H7.96875ZM8.58398 57.3047H29.0918C30.3223 57.3047 31.2695 56.9824 31.9336 56.3379C32.5977 55.7129 32.9297 54.8145 32.9297 53.6426V8.37891C32.9297 7.20703 32.5977 6.30859 31.9336 5.68359C31.2695 5.03906 30.3223 4.7168 29.0918 4.7168H8.58398C7.33398 4.7168 6.37695 5.03906 5.71289 5.68359C5.04883 6.30859 4.7168 7.20703 4.7168 8.37891V53.6426C4.7168 54.8145 5.04883 55.7129 5.71289 56.3379C6.37695 56.9824 7.33398 57.3047 8.58398 57.3047ZM12.627 55.166C12.2363 55.166 11.9043 55.0391 11.6309 54.7852C11.377 54.5312 11.25 54.1992 11.25 53.7891C11.25 53.3789 11.377 53.0469 11.6309 52.793C11.9043 52.5586 12.2363 52.4414 12.627 52.4414H25.0781C25.4688 52.4414 25.791 52.5586 26.0449 52.793C26.2988 53.0469 26.4258 53.3789 26.4258 53.7891C26.4258 54.1992 26.2988 54.5312 26.0449 54.7852C25.791 55.0391 25.4688 55.166 25.0781 55.166H12.627ZM15.293 10.9277C14.707 10.9277 14.209 10.7324 13.7988 10.3418C13.4082 9.93164 13.2129 9.43359 13.2129 8.84766C13.2129 8.28125 13.4082 7.80273 13.7988 7.41211C14.209 7.00195 14.707 6.79688 15.293 6.79688H22.3828C22.9492 6.79688 23.4277 7.00195 23.8184 7.41211C24.2285 7.80273 24.4336 8.28125 24.4336 8.84766C24.4336 9.43359 24.2285 9.93164 23.8184 10.3418C23.4277 10.7324 22.9492 10.9277 22.3828 10.9277H15.293Z" fill="#8E8E93"/>
</svg>
