<svg width="43" height="27" viewBox="0 0 43 27" fill="none" xmlns="http://www.w3.org/2000/svg">
<path d="M21.1875 26.5625C19.125 26.5625 17.1719 26.3125 15.3281 25.8125C13.4844 25.3125 11.776 24.651 10.2031 23.8281C8.63021 23.0052 7.21354 22.099 5.95312 21.1094C4.70312 20.1094 3.63021 19.1146 2.73438 18.125C1.84896 17.125 1.17188 16.1979 0.703125 15.3438C0.234375 14.4896 0 13.8021 0 13.2812C0 12.75 0.234375 12.0625 0.703125 11.2188C1.17188 10.3646 1.84896 9.4375 2.73438 8.4375C3.63021 7.4375 4.70312 6.44271 5.95312 5.45312C7.21354 4.46354 8.63021 3.55729 10.2031 2.73438C11.776 1.91146 13.4844 1.25 15.3281 0.75C17.1719 0.25 19.125 0 21.1875 0C23.2708 0 25.2344 0.25 27.0781 0.75C28.9323 1.25 30.6458 1.91146 32.2188 2.73438C33.7917 3.55729 35.2031 4.46354 36.4531 5.45312C37.7031 6.44271 38.7656 7.4375 39.6406 8.4375C40.526 9.4375 41.1979 10.3646 41.6562 11.2188C42.125 12.0625 42.3594 12.75 42.3594 13.2812C42.3594 13.8021 42.125 14.4896 41.6562 15.3438C41.1979 16.1979 40.526 17.125 39.6406 18.125C38.7656 19.1146 37.7031 20.1094 36.4531 21.1094C35.2135 22.099 33.8073 23.0052 32.2344 23.8281C30.6615 24.651 28.9479 25.3125 27.0938 25.8125C25.2396 26.3125 23.2708 26.5625 21.1875 26.5625ZM21.1875 22.0156C22.3854 22.0156 23.5104 21.7917 24.5625 21.3438C25.625 20.8854 26.5573 20.2552 27.3594 19.4531C28.1615 18.651 28.7865 17.724 29.2344 16.6719C29.6927 15.6198 29.9219 14.4896 29.9219 13.2812C29.9219 12.0729 29.6927 10.9427 29.2344 9.89062C28.7865 8.83854 28.1615 7.91146 27.3594 7.10938C26.5573 6.30729 25.625 5.68229 24.5625 5.23438C23.5104 4.77604 22.3854 4.54688 21.1875 4.54688C19.9792 4.54688 18.849 4.77604 17.7969 5.23438C16.7448 5.68229 15.8177 6.30729 15.0156 7.10938C14.2135 7.91146 13.5833 8.83854 13.125 9.89062C12.6771 10.9427 12.4531 12.0729 12.4531 13.2812C12.4531 14.4896 12.6771 15.6198 13.125 16.6719C13.5833 17.724 14.2135 18.651 15.0156 19.4531C15.8177 20.2552 16.7448 20.8854 17.7969 21.3438C18.849 21.7917 19.9792 22.0156 21.1875 22.0156ZM21.1875 16.4688C20.3021 16.4688 19.5469 16.1615 18.9219 15.5469C18.3073 14.9219 18 14.1667 18 13.2812C18 12.3958 18.3073 11.6458 18.9219 11.0312C19.5469 10.4062 20.3021 10.0938 21.1875 10.0938C22.0625 10.0938 22.8125 10.4062 23.4375 11.0312C24.0625 11.6458 24.375 12.3958 24.375 13.2812C24.375 14.1667 24.0625 14.9219 23.4375 15.5469C22.8125 16.1615 22.0625 16.4688 21.1875 16.4688Z" fill="#18181b"/>
</svg>
