<svg width="36" height="45" viewBox="0 0 36 45" fill="none" xmlns="http://www.w3.org/2000/svg">
<path d="M10.9375 9.51172C10.4948 9.51172 10.1172 9.36849 9.80469 9.08203C9.49219 8.78255 9.33594 8.40495 9.33594 7.94922C9.33594 7.51953 9.51172 7.13542 9.86328 6.79688L16.2695 0.605469C16.5169 0.371094 16.7513 0.214844 16.9727 0.136719C17.194 0.0455729 17.4219 0 17.6562 0C17.8906 0 18.1185 0.0455729 18.3398 0.136719C18.5612 0.214844 18.7891 0.371094 19.0234 0.605469L25.4492 6.79688C25.7878 7.13542 25.957 7.51953 25.957 7.94922C25.957 8.40495 25.7943 8.78255 25.4688 9.08203C25.1562 9.36849 24.7786 9.51172 24.3359 9.51172C23.8542 9.51172 23.4505 9.32943 23.125 8.96484L20.3516 5.99609L17.6562 2.73438L14.9609 5.99609L12.168 8.96484C11.8555 9.32943 11.4453 9.51172 10.9375 9.51172ZM17.6562 29.0234C17.1615 29.0234 16.7318 28.8477 16.3672 28.4961C16.0156 28.1445 15.8398 27.7344 15.8398 27.2656V7.65625L16.1719 2.05078C16.1979 1.63411 16.3477 1.28255 16.6211 0.996094C16.9076 0.696615 17.2526 0.546875 17.6562 0.546875C18.0599 0.546875 18.3984 0.696615 18.6719 0.996094C18.9583 1.28255 19.1146 1.63411 19.1406 2.05078L19.4727 7.65625V27.2656C19.4727 27.7344 19.2904 28.1445 18.9258 28.4961C18.5742 28.8477 18.151 29.0234 17.6562 29.0234ZM8.37891 44.7656C5.69661 44.7656 3.6263 44.0365 2.16797 42.5781C0.722656 41.1328 0 39.069 0 36.3867V21.3281C0 18.6328 0.722656 16.569 2.16797 15.1367C3.6263 13.6914 5.69661 12.9688 8.37891 12.9688H12.1484V16.7969H8.47656C6.99219 16.7969 5.84635 17.2005 5.03906 18.0078C4.24479 18.8021 3.84766 19.9479 3.84766 21.4453V36.2891C3.84766 37.7734 4.24479 38.9193 5.03906 39.7266C5.84635 40.5339 6.99219 40.9375 8.47656 40.9375H26.8164C28.3138 40.9375 29.4596 40.5339 30.2539 39.7266C31.0612 38.9193 31.4648 37.7734 31.4648 36.2891V21.4453C31.4648 19.9479 31.0612 18.8021 30.2539 18.0078C29.4596 17.2005 28.3138 16.7969 26.8164 16.7969H23.1445V12.9688H26.9141C29.6094 12.9688 31.6797 13.6914 33.125 15.1367C34.5833 16.569 35.3125 18.6328 35.3125 21.3281V36.3867C35.3125 39.069 34.5833 41.1328 33.125 42.5781C31.6797 44.0365 29.6094 44.7656 26.9141 44.7656H8.37891Z" fill="black"/>
</svg>
